<?xml version="1.0" encoding="utf-8"?>
<!-- Generator: Adobe Illustrator 18.1.0, SVG Export Plug-In . SVG Version: 6.00 Build 0)  -->
<!DOCTYPE svg PUBLIC "-//W3C//DTD SVG 1.1//EN" "http://www.w3.org/Graphics/SVG/1.1/DTD/svg11.dtd">
<svg version="1.1" id="Layer_1" xmlns="http://www.w3.org/2000/svg" xmlns:xlink="http://www.w3.org/1999/xlink" x="0px" y="0px"
	 viewBox="0 0 200 200" enable-background="new 0 0 200 200" xml:space="preserve">
<path fill="#FFFFFF" d="M100,1C45.3,1,1,45.3,1,100c0,54.7,44.3,99,99,99c54.7,0,99-44.3,99-99C199,45.3,154.7,1,100,1z M76.8,115.5
	c4.4,4.4,10.1,6.7,16.2,6.9c3.1,0,6.2,1.2,8.6,3.6c4.8,4.8,4.8,12.5,0,17.3c-4.8,4.8-12.5,4.8-17.3,0c-2.4-2.4-3.6-5.7-3.6-8.9
	c-0.3-5.9-2.6-11.7-6.9-16c-4.4-4.4-10-6.2-15.7-6.2l0,0c0,0-0.1,0-0.1,0c-0.3,0-0.7,0-1-0.1c0,0-0.1,0-0.1,0c-0.3,0-0.7-0.1-1-0.2
	c0,0-0.1,0-0.1,0c-0.3-0.1-0.7-0.2-1-0.3c-0.1,0-0.1,0-0.2-0.1c-0.3-0.1-0.6-0.2-0.9-0.3c-0.1,0-0.2-0.1-0.3-0.1
	c-0.3-0.1-0.5-0.2-0.8-0.4c-0.1-0.1-0.3-0.2-0.4-0.2c-0.2-0.1-0.4-0.2-0.6-0.4c-0.2-0.1-0.4-0.3-0.6-0.4c-0.1-0.1-0.3-0.2-0.4-0.3
	c-0.3-0.3-0.6-0.5-0.9-0.8c-4.8-4.8-4.8-12.5,0-17.3c0.3-0.3,0.6-0.6,0.9-0.8c0.2-0.2,0.4-0.3,0.6-0.5c0.1-0.1,0.2-0.2,0.3-0.2
	c0.2-0.2,0.5-0.3,0.7-0.4c0.1-0.1,0.2-0.1,0.3-0.2c0.3-0.1,0.5-0.2,0.8-0.4c0.1,0,0.2-0.1,0.3-0.1c0.3-0.1,0.6-0.2,0.8-0.3
	c0.1,0,0.2-0.1,0.3-0.1c0.3-0.1,0.6-0.2,0.9-0.2c0.1,0,0.2,0,0.2-0.1c0.3-0.1,0.6-0.1,1-0.2c0.1,0,0.1,0,0.2,0c0.3,0,0.7-0.1,1-0.1
	c0,0,0.1,0,0.1,0l0,0c5.7,0,11.3-1.8,15.7-6.2c4.3-4.3,6.6-10.1,6.9-16c-0.1-3.2,1.1-6.4,3.6-8.9c4.8-4.8,12.5-4.8,17.3,0
	c4.8,4.8,4.8,12.5,0,17.3c-2.4,2.4-5.6,3.6-8.6,3.6v0c-6,0.2-11.8,2.5-16.2,6.9c-4.3,4.3-6.2,9.9-6.2,15.5
	C70.7,105.6,72.5,111.2,76.8,115.5z M136.3,143.3c-4.8,4.8-12.5,4.8-17.3,0c-4.8-4.8-4.8-12.5,0-17.3c4.8-4.8,12.5-4.8,17.3,0
	C141.1,130.7,141.1,138.5,136.3,143.3z M136.3,74c-4.8,4.8-12.5,4.8-17.3,0c-4.8-4.8-4.8-12.5,0-17.3c4.8-4.8,12.5-4.8,17.3,0
	C141.1,61.5,141.1,69.2,136.3,74z"/>
</svg>
